<!DOCTYPE svg PUBLIC "-//W3C//DTD SVG 1.1//EN" "http://www.w3.org/Graphics/SVG/1.1/DTD/svg11.dtd" [
	<!ENTITY ns_flows "http://ns.adobe.com/Flows/1.0/">
]><svg xmlns="http://www.w3.org/2000/svg" width="260" height="100" viewBox="-12.2 -3.7 260 100" enable-background="new -12.2 -3.7 260 100"><path fill="#1946BA" d="M74.2 35c0 1.7-1.4 3.1-3.1 3.1-1.7 0-3.1-1.4-3.1-3.1s1.4-3.1 3.1-3.1c1.8.1 3.1 1.4 3.1 3.1M89.1 15.1c0 2.6-2.1 4.6-4.6 4.6-2.6 0-4.6-2.1-4.6-4.6 0-2.6 2.1-4.6 4.6-4.6 2.5 0 4.6 2 4.6 4.6M102.4 21.7c0 2.6-2.1 4.6-4.6 4.6-2.6 0-4.6-2.1-4.6-4.6 0-2.6 2.1-4.6 4.6-4.6 2.5 0 4.6 2.1 4.6 4.6M115.7 28.4c0 2.6-2.1 4.6-4.6 4.6s-4.6-2.1-4.6-4.6c0-2.6 2.1-4.6 4.6-4.6s4.6 2 4.6 4.6M102.4 35c0 2.6-2.1 4.6-4.6 4.6-2.6 0-4.6-2.1-4.6-4.6 0-2.6 2.1-4.6 4.6-4.6 2.5 0 4.6 2.1 4.6 4.6M129 35c0 2.6-2.1 4.6-4.6 4.6-2.6 0-4.6-2.1-4.6-4.6 0-2.6 2.1-4.6 4.6-4.6 2.5 0 4.6 2.1 4.6 4.6M127.4 48.3c0 1.7-1.4 3.1-3.1 3.1s-3.1-1.4-3.1-3.1c0-1.7 1.4-3.1 3.1-3.1s3.1 1.4 3.1 3.1M140.7 41.7c0 1.7-1.4 3.1-3.1 3.1-1.7 0-3.1-1.4-3.1-3.1 0-1.7 1.4-3.1 3.1-3.1 1.7 0 3.1 1.4 3.1 3.1M142.3 28.4c0 2.6-2.1 4.6-4.6 4.6s-4.7-2-4.7-4.6c0-2.6 2.1-4.6 4.6-4.6s4.7 2 4.7 4.6M129 21.7c0 2.6-2.1 4.6-4.6 4.6-2.6 0-4.6-2.1-4.6-4.6 0-2.6 2.1-4.6 4.6-4.6 2.5 0 4.6 2.1 4.6 4.6M114.1 41.7c0 1.7-1.4 3.1-3.1 3.1-1.7 0-3.1-1.4-3.1-3.1 0-1.7 1.4-3.1 3.1-3.1 1.7 0 3.1 1.4 3.1 3.1M142.3 15.1c0 2.6-2.1 4.6-4.6 4.6s-4.6-2.1-4.6-4.6c0-2.6 2.1-4.6 4.6-4.6s4.6 2 4.6 4.6M154 8.5c0 1.7-1.4 3.1-3.1 3.1-1.7 0-3.1-1.4-3.1-3.1s1.4-3.1 3.1-3.1c1.7 0 3.1 1.3 3.1 3.1M154 35c0 1.7-1.4 3.1-3.1 3.1s-3.1-1.4-3.1-3.1c0-1.7 1.4-3.1 3.1-3.1s3.1 1.4 3.1 3.1M114.1 15.1c0 1.7-1.4 3.1-3.1 3.1-1.7 0-3.1-1.4-3.1-3.1 0-1.7 1.4-3.1 3.1-3.1 1.7 0 3.1 1.4 3.1 3.1M100.8 48.3c0 1.7-1.4 3.1-3.1 3.1s-3.1-1.4-3.1-3.1c0-1.7 1.4-3.1 3.1-3.1s3.1 1.4 3.1 3.1M89.1 28.4c0 2.6-2.1 4.6-4.6 4.6-2.6 0-4.6-2.1-4.6-4.6 0-2.6 2.1-4.6 4.6-4.6 2.5 0 4.6 2 4.6 4.6"/><path fill="#EC0B43" d="M75.8 21.7c0 2.6-2.1 4.6-4.6 4.6-2.6 0-4.6-2.1-4.6-4.6s2.1-4.6 4.6-4.6c2.5 0 4.6 2.1 4.6 4.6"/><path fill="#1946BA" d="M59.7 41.7c0 1-.8 1.8-1.8 1.8s-1.8-.8-1.8-1.8.8-1.8 1.8-1.8 1.8.8 1.8 1.8M59.7 28.4c0 1-.8 1.8-1.8 1.8s-1.8-.8-1.8-1.8.8-1.8 1.8-1.8 1.8.8 1.8 1.8M86.3 41.6c0 1-.8 1.8-1.8 1.8s-1.8-.8-1.8-1.8.8-1.8 1.8-1.8c.9 0 1.8.8 1.8 1.8M86.3 1.8c0 1-.8 1.8-1.8 1.8s-1.8-.8-1.8-1.8.8-1.8 1.8-1.8 1.8.8 1.8 1.8M112.8 55c0 1-.8 1.8-1.8 1.8s-1.8-.8-1.8-1.8.8-1.8 1.8-1.8c.9 0 1.8.8 1.8 1.8M73 8.5c0 1-.8 1.8-1.8 1.8s-1.8-.8-1.8-1.8.8-1.8 1.8-1.8c1-.1 1.8.8 1.8 1.8M99.6 8.5c0 1-.8 1.8-1.8 1.8S96 9.5 96 8.5s.8-1.8 1.8-1.8c.9-.1 1.8.8 1.8 1.8M112.8 55c0 1-.8 1.8-1.8 1.8s-1.8-.8-1.8-1.8.8-1.8 1.8-1.8c.9 0 1.8.8 1.8 1.8M179.3 21.7c0 1-.8 1.8-1.8 1.8s-1.8-.8-1.8-1.8.8-1.8 1.8-1.8 1.8.8 1.8 1.8M152.7 48.3c0 1-.8 1.8-1.8 1.8s-1.8-.8-1.8-1.8.8-1.8 1.8-1.8 1.8.8 1.8 1.8M168.8 15.1c0 2.6-2.1 4.6-4.6 4.6s-4.6-2.1-4.6-4.6c0-2.6 2.1-4.6 4.6-4.6s4.6 2 4.6 4.6M155.6 21.7c0 2.6-2.1 4.6-4.6 4.6-2.6 0-4.6-2.1-4.6-4.6s2.1-4.6 4.6-4.6c2.5 0 4.6 2.1 4.6 4.6M166 41.7c0 1-.8 1.8-1.8 1.8s-1.8-.8-1.8-1.8.8-1.8 1.8-1.8 1.8.8 1.8 1.8M167.3 28.4c0 1.7-1.4 3.1-3.1 3.1-1.7 0-3.1-1.4-3.1-3.1s1.4-3.1 3.1-3.1c1.7 0 3.1 1.4 3.1 3.1M126.1 8.5c0 1-.8 1.8-1.8 1.8s-1.8-.8-1.8-1.8.8-1.8 1.8-1.8c1-.1 1.8.8 1.8 1.8M166 1.8c0 1-.8 1.8-1.8 1.8s-1.8-.8-1.8-1.8.8-1.8 1.8-1.8 1.8.8 1.8 1.8M179.3 8.5c0 1-.8 1.8-1.8 1.8s-1.8-.8-1.8-1.8.8-1.8 1.8-1.8c1-.1 1.8.8 1.8 1.8"/><path fill="#1946BA" d="M.3 79.4c-.2-.4-.3-.8-.3-1.3 0-.4.2-.7.6-.9.4-.2.8-.2 1.1-.1.3.2.6.5.9.9l4.2 7.8 3.1-7.6c.4-1 1-1.4 1.8-1.1.7.3.9.9.5 1.9l-3.8 8.9c-.7 1.6-1.4 2.8-2 3.5-.6.8-1.4 1.2-2.4 1.2-.9 0-1.6-.1-2.1-.4-.8-.4-1-1-.8-1.7.2-.6.7-.8 1.4-.6.1 0 .2.1.4.1.2.1.3.1.5.2s.3 0 .5 0c.4 0 .7-.2 1-.5s.5-.8.8-1.4L.3 79.4zM25.1 85.7H18V91c0 .4-.1.7-.4 1-.2.3-.6.4-1 .4s-.8-.1-1-.4-.3-.6-.3-1V78.4c0-.4.1-.7.3-1 .2-.3.6-.4 1-.4s.7.1 1 .4c.2.3.4.6.4 1v4.9h7.1v-4.9c0-.4.1-.7.3-1 .2-.3.6-.4 1-.4s.7.1 1 .4c.2.3.4.6.4 1V91c0 .4-.1.7-.4 1-.2.3-.6.4-1 .4s-.8-.1-1-.4-.3-.6-.3-1v-5.3zM34.7 87.7l7.2-9.9c.4-.5.8-.8 1.3-.8.8 0 1.3.5 1.3 1.4V91c0 .4-.1.7-.3 1s-.5.4-1 .4c-.4 0-.8-.1-1-.4s-.3-.6-.3-1v-9.3l-7.2 9.9c-.4.5-.8.8-1.2.8-.4 0-.7-.1-.9-.4s-.6-.6-.6-1V78.4c0-.4.1-.7.3-1 .2-.3.6-.4 1-.4s.8.1 1 .4c.2.3.3.6.3 1v9.3zM48.6 78.7c0-.8.4-1.3 1.3-1.5 1.1-.2 2.2-.3 3.6-.3 3.7 0 5.6 1.3 5.6 4 0 .7-.2 1.3-.5 1.9s-.9 1-1.5 1.3c.9.3 1.5.7 2 1.3.5.6.7 1.4.7 2.3 0 3.1-2.1 4.7-6.2 4.7-1.5 0-2.7-.1-3.8-.2-.8-.1-1.2-.6-1.2-1.4V78.7zm2.6.5v4.3h2.3c1.9 0 2.9-.8 2.9-2.3 0-1.4-1-2.1-3.1-2.1-.7 0-1.4.1-2.1.1zm0 6.3v4.6c.7.1 1.6.1 2.6.1 1.1 0 1.9-.2 2.5-.6.6-.4.8-1 .8-1.8 0-1.6-1.1-2.4-3.3-2.4h-2.6zM63.3 78.4c0-.4.1-.7.4-1 .2-.3.6-.4 1-.4h7.5c.4 0 .7.1.9.3s.3.5.3.9-.1.6-.3.9-.5.3-.9.3H66v3.9h5c.4 0 .7.1.9.3.2.2.3.5.3.9s-.1.6-.3.9-.5.3-.9.3h-5V90h6.4c.4 0 .7.1.9.3s.3.5.3.9-.1.6-.3.9-.5.3-.9.3h-7.7c-.4 0-.8-.1-1-.4-.2-.3-.4-.6-.4-1V78.4zM76.8 78.8c0-.9.4-1.4 1.2-1.6 1-.2 2.1-.3 3.4-.3 1.8 0 3.3.4 4.3 1.2 1 .8 1.6 2 1.6 3.7 0 1.7-.5 3-1.6 3.9-1.1.9-2.5 1.3-4.3 1.3-.8 0-1.5 0-1.9-.1V91c0 .4-.1.7-.4 1-.2.3-.6.4-1 .4s-.8-.1-1-.4-.3-.6-.3-1V78.8zm7.7 3.1c0-1.8-1-2.6-3.1-2.6-.6 0-1.3 0-1.9.1v5.2c.4.1 1 .1 1.8.1 2.1 0 3.2-.9 3.2-2.8zM94 80.7c-.8 1-1.2 2.3-1.2 4 0 1.7.4 3.1 1.3 4.1.8 1 1.9 1.5 3.2 1.5 1 0 2.1-.3 3.2-1 .8-.4 1.3-.4 1.7.2.2.3.2.6.2.9s-.3.7-.7 1c-1.2.9-2.7 1.3-4.5 1.3-2.3 0-4.1-.7-5.3-2.1-1.2-1.4-1.8-3.3-1.8-5.8 0-2.4.6-4.3 1.9-5.7 1.3-1.4 3-2.1 5.2-2.1 1.8 0 3.1.3 4.1 1 .7.4.8 1 .5 1.6-.3.6-.8.7-1.7.4-1.1-.4-2.1-.6-2.9-.6-1.3-.2-2.4.3-3.2 1.3zM108.2 87.7l7.2-9.9c.4-.5.8-.8 1.3-.8.8 0 1.3.5 1.3 1.4V91c0 .4-.1.7-.3 1s-.5.4-1 .4c-.4 0-.8-.1-1-.4s-.3-.6-.3-1v-9.3l-7.2 9.9c-.4.5-.8.8-1.2.8-.4 0-.7-.1-.9-.4s-.3-.6-.3-1V78.4c0-.4.1-.7.3-1 .2-.3.6-.4 1-.4s.8.1 1 .4c.2.3.3.6.3 1v9.3zM132.7 77c.4 0 .7.1.9.3s.3.5.3.9-.1.6-.3.9c-.2.2-.5.3-.9.3h-3.9V91c0 .4-.1.7-.3 1-.2.3-.6.4-1 .4s-.8-.1-1-.4-.3-.6-.3-1V79.4h-3.9c-.4 0-.7-.1-.9-.3-.2-.2-.3-.5-.3-.9s.1-.7.3-.9c.2-.2.5-.3.9-.3h10.4zM136.9 78.4c0-.4.1-.7.4-1 .2-.3.6-.4 1-.4h7.5c.4 0 .7.1.9.3.2.2.3.5.3.9s-.1.6-.3.9c-.2.2-.5.3-.9.3h-6.2v3.9h5c.4 0 .7.1.9.3.2.2.3.5.3.9s-.1.6-.3.9c-.2.2-.5.3-.9.3h-5V90h6.4c.4 0 .7.1.9.3s.3.5.3.9-.1.6-.3.9-.5.3-.9.3h-7.7c-.4 0-.8-.1-1-.4s-.4-.6-.4-1V78.4zM161.3 77c.4 0 .7.1.9.3.2.2.3.5.3.9s-.1.6-.3.9c-.2.2-.5.3-.9.3h-3.9V91c0 .4-.1.7-.3 1s-.6.4-1 .4-.8-.1-1-.4c-.2-.3-.3-.6-.3-1V79.4h-3.9c-.4 0-.7-.1-.9-.3-.2-.2-.3-.5-.3-.9s.1-.7.3-.9.5-.3.9-.3h10.4zM174.6 87.7l7.2-9.9c.4-.5.8-.8 1.3-.8.8 0 1.3.5 1.3 1.4V91c0 .4-.1.7-.3 1-.2.3-.5.4-1 .4-.4 0-.8-.1-1-.4-.2-.3-.3-.6-.3-1v-9.3l-7.2 9.9c-.4.5-.8.8-1.2.8-.4 0-.7-.1-.9-.4-.2-.2-.3-.6-.3-1V78.4c0-.4.1-.7.3-1 .2-.3.6-.4 1-.4s.8.1 1 .4c.2.3.3.6.3 1v9.3zM199 77c.4 0 .7.1.9.3.2.2.3.5.3.9s-.1.6-.3.9c-.2.2-.5.3-.9.3h-3.9V91c0 .4-.1.7-.3 1s-.6.4-1 .4-.8-.1-1-.4c-.2-.3-.3-.6-.3-1V79.4h-3.9c-.4 0-.7-.1-.9-.3-.2-.2-.3-.5-.3-.9s.1-.7.3-.9.5-.3.9-.3H199zM210.4 85l4.4-7.2c.4-.6.8-.8 1.3-.8.4 0 .7.1.9.4s.3.6.3 1V91c0 .4-.1.7-.3 1s-.6.4-1 .4-.7-.1-1-.4c-.2-.3-.4-.6-.4-1v-9l-3.2 5.2c-.3.5-.7.8-1.2.8s-.9-.3-1.2-.8l-3.3-5.2v9c0 .9-.4 1.4-1.2 1.4-.8 0-1.2-.5-1.2-1.4V78.4c0-.5.1-.8.3-1.1.2-.2.5-.3.9-.3.6 0 1 .3 1.4.9l4.5 7.1zM222.8 79c1.3-1.5 3.1-2.2 5.4-2.2 2.3 0 4.1.7 5.4 2.2s1.9 3.4 1.9 5.7c0 2.3-.6 4.2-1.9 5.7s-3.1 2.2-5.4 2.2c-2.3 0-4.1-.7-5.4-2.2s-1.9-3.4-1.9-5.7c0-2.3.7-4.2 1.9-5.7zm2.1 9.6c.8 1 1.9 1.5 3.3 1.5 1.5 0 2.6-.5 3.3-1.5s1.2-2.4 1.2-4-.4-2.9-1.2-4-1.9-1.5-3.3-1.5-2.5.5-3.3 1.5c-.8 1-1.2 2.4-1.2 4 0 1.7.4 3 1.2 4z"/></svg>